<svg xmlns="http://www.w3.org/2000/svg" xmlns:xlink="http://www.w3.org/1999/xlink" width="2543.702" height="1420.574" viewBox="0 0 2543.702 1420.574"><defs><style>.a{fill:url(#a);}.b{fill:url(#b);}.c{fill:url(#c);}</style><linearGradient id="a" x1="0.5" x2="0.5" y2="1" gradientUnits="objectBoundingBox"><stop offset="0" stop-color="#03b16b"/><stop offset="1" stop-color="#025936"/></linearGradient><linearGradient id="b" x1="0.5" x2="0.5" y2="1" gradientUnits="objectBoundingBox"><stop offset="0" stop-color="#001680"/><stop offset="1" stop-color="#000b40"/></linearGradient><linearGradient id="c" x1="0.5" x2="0.5" y2="1" gradientUnits="objectBoundingBox"><stop offset="0" stop-color="#191818" stop-opacity="0.749"/><stop offset="1" stop-color="#191818"/></linearGradient></defs><g transform="translate(384.483 93.762)"><path class="a" d="M2451.715,248.439c135.1,58.31,267.907-233.341,406.565-81.47s147.841,118.663,202.4,212.53-14.081,603.94-239.362,727.916-344.3,108.765-450.564-26.566S2076.831,899.822,2076.831,728.4s267.523-65.736,267.523-166.482S2316.615,190.129,2451.715,248.439Z" transform="translate(-919.235 134.81)"/><path class="b" d="M173.678,5.405C321.394,49.92,309.125,226.163,461.085,340.919s498.9-40.386,638.541-17.1S1011.4,672.669,804.79,627.363,182.006,841.147,65.476,738.984,79.86,546.86,79.2,418.2-3.324,265.8-3.711,190.18,25.962-39.109,173.678,5.405Z" transform="matrix(0.438, 0.899, -0.899, 0.438, 302.964, -89.31)"/><path class="c" d="M33.342,15.989c28.789,10.593,67.337-36.544,97-9.282s56.286,79.475,83.487,85.028S196.9,174.5,156.642,163.705s-121.1,50.6-143.854,26.336,2.666-45.587,2.448-76.117S-.936,77.742-1.064,59.8,4.553,5.4,33.342,15.989Z" transform="translate(1498.101 279.356) rotate(-158)"/></g></svg>