<svg xmlns="http://www.w3.org/2000/svg" xmlns:xlink="http://www.w3.org/1999/xlink" width="2750.756" height="1600.495" viewBox="0 0 2855.756 1647.495"><defs><style>.a{fill:url(#a);}.b{fill:url(#b);}</style><linearGradient id="a" x1="0.5" x2="0.5" y2="1" gradientUnits="objectBoundingBox"><stop offset="0" stop-color="#001680"/><stop offset="1" stop-color="#000b40"/></linearGradient><linearGradient id="b" x1="0.5" x2="0.5" y2="1" gradientUnits="objectBoundingBox"><stop offset="0" stop-color="#03b16b"/><stop offset="1" stop-color="#001680"/></linearGradient></defs><g transform="translate(467.409 178.41)"><path class="a" d="M2563.125,208.079c58.456,2.505,125.889,21.12,103.154,76.883s-326.186,85.483-252.215,152.814,548.1,67.2,548.1,116.51c0,101.666-558.863,63.273-641.749,144.59s-30.8,98.226,56.083,94.539,155.355,16.9,163.718,40.5.405,51.255-12.231,77.8-116.143-12.282-161.454,9.624-86.847,52.788,0,70.384,250.876-39.02,337.723-19.469,145.6,78.122,9.665,97.673-425.545,6-543.739,0S1813.693,350.38,1923.72,255.469,2563.125,208.079,2563.125,208.079Z" transform="translate(-2193.151 1519.469) rotate(-31)"/><path class="b" d="M2400.569,208.079c44.225,2.505,95.24,21.12,78.04,76.883S2231.836,370.444,2287.8,437.775s414.658,67.2,414.658,116.51c0,101.666-422.8,63.273-485.51,144.59s-23.3,98.226,42.429,94.539,117.532,16.9,123.859,40.5.307,51.255-9.253,77.8-87.867-12.282-122.146,9.624-65.7,52.788,0,70.384,189.8-39.02,255.5-19.469,110.152,78.122,7.312,97.673-321.942,6-411.361,0-269.7-719.547-186.455-814.458S2400.569,208.079,2400.569,208.079Z" transform="matrix(-0.799, 0.602, -0.602, -0.799, 4020.17, -456.495)"/></g></svg>