<svg id="Layer_3" enable-background="new 0 0 64 64" height="512" viewBox="0 0 64 64" width="512" xmlns="http://www.w3.org/2000/svg"><g><path d="m25 32h11v2h-11z" fill="#8892a0"/><path d="m50 2-8 6v8h16v-8z" fill="#f5b953"/><path d="m50 2-8 6v5.01c1.501.629 3.198.99 5 .99 4.953 0 9.139-2.679 10.517-6.362z" fill="#f9d18b"/><path d="m18 39h2c1.105 0 2-.895 2-2v-15c0-2.209-1.791-4-4-4h-12c-2.209 0-4 1.791-4 4v15c0 1.105.895 2 2 2h2" fill="#8892a0"/><path d="m9 18 3 12 3-12" fill="#fff"/><g fill="#efbe9a"><path d="m12 22c2.209 0 4-1.791 4-4h-8c0 2.209 1.791 4 4 4z"/><path d="m6 39h-2c-1.105 0-2-.895-2-2v-2h4z"/><path d="m20 39h-2v-4h4v2c0 1.105-.895 2-2 2z"/></g><path d="m6 35h12v23h-12z" fill="#4d5d7a"/><path d="m12 58h-6c-1.105 0-2 .895-2 2v2h8z" fill="#8892a0"/><path d="m12 58h6c1.105 0 2 .895 2 2v2h-8z" fill="#a8b0bc"/><path d="m8 10h-3c-1.105 0-2 .895-2 2 0 1.105.895 2 2 2h3" fill="#db9b7c"/><path d="m16 10h3c1.105 0 2 .895 2 2 0 1.105-.895 2-2 2h-3" fill="#db9b7c"/><path d="m17 6v7c0 2.761-2.239 5-5 5-2.761 0-5-2.239-5-5v-7" fill="#efbe9a"/><path d="m15 6c0 2.209-3.791 4-6 4h-4v-4c0-2.209 1.791-4 4-4h6c2.209 0 4 1.791 4 4v4c-2.209 0-4-1.791-4-4z" fill="#976947"/><path d="m11 40h2v18h-2z" fill="#243242"/><path d="m61.4 11.8-11.4-8.55-11.4 8.55-1.2-1.6 12-9c.355-.268.844-.268 1.199 0l12 9z" fill="#976947"/><path d="m48 16v-6h4v6" fill="#ebf7fe"/><path d="m36 58h-5c-.553 0-1-.447-1-1v-47c0-.553.447-1 1-1h5v2h-4v45h4z" fill="#4d5d7a"/><path d="m5 26h2v9h-2z" fill="none"/><path d="m17 28h2v7h-2z" fill="#4d5d7a"/><path d="m5 28h2v7h-2z" fill="#4d5d7a"/><path d="m6 35h12v2h-12z" fill="#243242"/><path d="m18 18v5h-2l1 2-5 5-5-5 1-2h-2v-5h3l3 12 3-12z" fill="#4d5d7a"/><path d="m50 25-8 6v8h16v-8z" fill="#f5b953"/><path d="m50 25-8 6v5.01c1.501.629 3.198.99 5 .99 4.953 0 9.139-2.679 10.517-6.362z" fill="#f9d18b"/><path d="m48 39v-6h4v6" fill="#ebf7fe"/><path d="m61.4 34.8-11.4-8.55-11.4 8.55-1.2-1.6 12-9c.355-.268.844-.268 1.199 0l12 9z" fill="#976947"/><path d="m50 48-8 6v8h16v-8z" fill="#f5b953"/><path d="m50 48-8 6v5.01c1.501.629 3.198.99 5 .99 4.953 0 9.139-2.679 10.517-6.362z" fill="#f9d18b"/><path d="m48 62v-6h4v6" fill="#ebf7fe"/><path d="m61.4 57.8-11.4-8.55-11.4 8.55-1.2-1.6 12-9c.355-.268.844-.268 1.199 0l12 9z" fill="#976947"/><path d="m4 40h1v17.184c-1.161.414-2 1.514-2 2.816v2c0 .553.447 1 1 1h8 8c.553 0 1-.447 1-1v-2c0-1.302-.839-2.402-2-2.816v-17.184h1c1.654 0 3-1.346 3-3v-15c0-2.757-2.243-5-5-5h-1.54c.519-.578.926-1.254 1.19-2h1.35c1.654 0 3-1.346 3-3 0-1.302-.839-2.402-2-2.816v-3.184c0-2.757-2.243-5-5-5h-6c-2.757 0-5 2.243-5 5v3.184c-1.161.414-2 1.514-2 2.816 0 1.654 1.346 3 3 3h1.35c.265.746.672 1.422 1.19 2h-1.54c-2.757 0-5 2.243-5 5v15c0 1.654 1.346 3 3 3zm-1-3v-1h2v2h-1c-.552 0-1-.448-1-1zm8 24h-6v-1c0-.552.448-1 1-1h5zm0-23v19h-4v-18-3h10v21h-4v-19zm8 23h-6v-2h5c.552 0 1 .448 1 1zm1-23h-1v-2h2v1c0 .552-.448 1-1 1zm-4.895-14.553.678 1.355-1.938 1.938 1.935-7.74h1.22v3h-1c-.347 0-.668.18-.851.475s-.199.663-.044.972zm-6.254-.972c-.183-.295-.504-.475-.851-.475h-1v-3h1.22l1.935 7.741-1.938-1.938.678-1.355c.155-.31.138-.678-.044-.973zm4.869-3.475-1.72 6.877-1.72-6.877zm5.28-6h-1v-2h1c.552 0 1 .448 1 1s-.448 1-1 1zm-13-7c0-1.654 1.346-3 3-3h6c1.654 0 3 1.346 3 3v2.829c-1.164-.413-2-1.525-2-2.829 0-.553-.447-1-1-1s-1 .447-1 1c0 1.391-3.025 3-5 3h-3zm-1 7c-.552 0-1-.448-1-1s.448-1 1-1h1v2zm3 0v-2h1c1.612 0 4.21-.876 5.747-2.374.329.531.755.996 1.253 1.371v3.003c0 2.206-1.794 4-4 4s-4-1.794-4-4zm-3 6.184v3.816c0 .553.447 1 1 1h.382l-.276.553c-.192.385-.117.85.188 1.154l5 5c.013.013.031.017.044.029.066.059.139.105.218.145.031.016.059.038.092.05.11.042.228.069.352.069s.242-.027.353-.069c.032-.012.06-.034.091-.05.079-.04.153-.086.218-.145.014-.012.031-.016.044-.029l5-5c.305-.305.38-.77.188-1.154l-.276-.553h.382c.553 0 1-.447 1-1v-3.816c1.161.414 2 1.514 2 2.816v12h-2v-6h-2v6h-10v-6h-2v6h-2v-12c0-1.302.839-2.402 2-2.816z"/><path d="m49.4 24.2-12 9 1.199 1.6 2.401-1.8v6c0 .553.447 1 1 1h16c.553 0 1-.447 1-1v-6l2.4 1.8 1.199-1.6-12-9c-.355-.267-.843-.267-1.199 0zm1.6 13.8h-2v-4h2zm6 0h-4v-5c0-.553-.447-1-1-1h-4c-.553 0-1 .447-1 1v5h-4v-6.5l7-5.25 7 5.25z"/><path d="m49.4 1.2-12 9 1.199 1.6 2.401-1.8v6c0 .553.447 1 1 1h16c.553 0 1-.447 1-1v-6l2.4 1.8 1.199-1.6-12-9c-.355-.267-.843-.267-1.199 0zm1.6 13.8h-2v-4h2zm6 0h-4v-5c0-.553-.447-1-1-1h-4c-.553 0-1 .447-1 1v5h-4v-6.5l7-5.25 7 5.25z"/><path d="m49.4 47.2-12 9 1.199 1.6 2.401-1.8v6c0 .553.447 1 1 1h16c.553 0 1-.447 1-1v-6l2.4 1.8 1.199-1.6-12-9c-.355-.267-.843-.267-1.199 0zm1.6 13.8h-2v-4h2zm6 0h-4v-5c0-.553-.447-1-1-1h-4c-.553 0-1 .447-1 1v5h-4v-6.5l7-5.25 7 5.25z"/><path d="m36 11v-2h-5c-.553 0-1 .447-1 1v22h-5v2h5v23c0 .553.447 1 1 1h5v-2h-4v-22h4v-2h-4v-21z"/></g></svg>